<svg id="Component_3_1" data-name="Component 3 – 1" xmlns="http://www.w3.org/2000/svg" width="58.096" height="16.192" viewBox="0 0 58.096 16.192">
  <rect id="Rectangle_1132" data-name="Rectangle 1132" width="57" height="2" transform="translate(0 7.192)" fill="#fff"/>
  <path id="Rectangle_1133" data-name="Rectangle 1133" d="M0,0H10a1,1,0,0,1,1,1V1a1,1,0,0,1-1,1H0A0,0,0,0,1,0,2V0A0,0,0,0,1,0,0Z" transform="translate(50.318) rotate(45)" fill="#fff"/>
  <path id="Rectangle_1134" data-name="Rectangle 1134" d="M1,0H11a0,0,0,0,1,0,0V2a0,0,0,0,1,0,0H1A1,1,0,0,1,0,1V1A1,1,0,0,1,1,0Z" transform="translate(58.096 8.414) rotate(135)" fill="#fff"/>
</svg>
